<?xml version="1.0" encoding="iso-8859-1"?>
<!-- Uploaded to: SVG Repo, www.svgrepo.com, Generator: SVG Repo Mixer Tools -->
<svg height="800px" width="800px" version="1.1" id="Layer_1" xmlns="http://www.w3.org/2000/svg" xmlns:xlink="http://www.w3.org/1999/xlink" 
	 viewBox="0 0 512.001 512.001" xml:space="preserve">
<path style="fill:#8CC1EA;" d="M376.929,393.834h-73.547l43.861-222.235h77.423c41.909,0,75.876,33.967,75.876,75.865v131.895
	c0,7.995-6.481,14.476-14.476,14.476H464.08"/>
<polyline style="fill:#F2CA7F;" points="157.689,393.834 125.007,393.834 125.007,148.721 347.243,148.721 347.243,171.598 
	347.243,393.834 244.84,393.834 "/>
<circle style="fill:#898686;" cx="201.265" cy="393.828" r="43.576"/>
<circle style="fill:#EDEBEB;" cx="201.265" cy="393.828" r="17.583"/>
<circle style="fill:#898686;" cx="420.504" cy="393.828" r="43.576"/>
<path style="fill:#CEE5F2;" d="M467.86,281.082v-33.619c0-23.811-19.377-43.183-43.194-43.183h-44.741v76.802H467.86z"/>
<path style="fill:#9E9A9A;" d="M201.265,380.94c7.121,0,12.894,5.773,12.894,12.894s-5.773,12.894-12.894,12.894
	c-7.121,0-12.894-5.773-12.894-12.894S194.143,380.94,201.265,380.94 M201.265,368.957c-13.718,0-24.877,11.16-24.877,24.877
	s11.16,24.877,24.877,24.877c13.718,0,24.877-11.16,24.877-24.877S214.982,368.957,201.265,368.957L201.265,368.957z"/>
<circle style="fill:#EDEBEB;" cx="420.504" cy="393.828" r="17.583"/>
<path style="fill:#9E9A9A;" d="M420.503,380.94c7.121,0,12.894,5.773,12.894,12.894s-5.773,12.894-12.894,12.894
	c-7.121,0-12.894-5.773-12.894-12.894S413.383,380.94,420.503,380.94 M420.503,368.957c-13.718,0-24.877,11.16-24.877,24.877
	s11.16,24.877,24.877,24.877c13.718,0,24.877-11.16,24.877-24.877S434.221,368.957,420.503,368.957L420.503,368.957z"/>
<path style="fill:#FFFFFF;" d="M467.86,348.624c-4.512,0-8.17-3.658-8.17-8.17v-20.698c0-4.512,3.658-8.17,8.17-8.17
	c4.512,0,8.17,3.658,8.17,8.17v20.698C476.031,344.966,472.372,348.624,467.86,348.624z"/>
<g>
	<path style="fill:#E0B76E;" d="M171.309,330.398L171.309,330.398c-4.813,0-8.715-3.902-8.715-8.715V194.224
		c0-4.813,3.902-8.715,8.715-8.715l0,0c4.813,0,8.715,3.902,8.715,8.715v127.459C180.024,326.495,176.122,330.398,171.309,330.398z"
		/>
	<path style="fill:#E0B76E;" d="M236.125,330.398L236.125,330.398c-4.813,0-8.715-3.902-8.715-8.715V194.224
		c0-4.813,3.902-8.715,8.715-8.715l0,0c4.813,0,8.715,3.902,8.715,8.715v127.459C244.84,326.495,240.938,330.398,236.125,330.398z"
		/>
	<path style="fill:#E0B76E;" d="M300.943,330.398L300.943,330.398c-4.813,0-8.715-3.902-8.715-8.715V194.224
		c0-4.813,3.902-8.715,8.715-8.715l0,0c4.813,0,8.715,3.902,8.715,8.715v127.459C309.658,326.495,305.756,330.398,300.943,330.398z"
		/>
	<path style="fill:#E0B76E;" d="M503.83,381.054h-25.664c-4.512,0-8.17-3.658-8.17-8.17c0-4.512,3.658-8.17,8.17-8.17h25.665
		c4.512,0,8.17,3.658,8.17,8.17C512.001,377.396,508.342,381.054,503.83,381.054z"/>
	<path style="fill:#E0B76E;" d="M142.152,381.054h-25.664c-4.512,0-8.17-3.658-8.17-8.17c0-4.512,3.658-8.17,8.17-8.17h25.665
		c4.512,0,8.17,3.658,8.17,8.17C150.324,377.396,146.665,381.054,142.152,381.054z"/>
</g>
<g>
	<path style="fill:#EDEBEB;" d="M53.377,226.027H27.779c-3.308,0-5.992-2.682-5.992-5.992c0-3.31,2.683-5.992,5.992-5.992h25.597
		c3.308,0,5.992,2.682,5.992,5.992C59.368,223.344,56.685,226.027,53.377,226.027z"/>
	<path style="fill:#EDEBEB;" d="M96.952,318.619H38.673c-3.308,0-5.992-2.682-5.992-5.992s2.683-5.992,5.992-5.992h58.279
		c3.308,0,5.992,2.682,5.992,5.992S100.261,318.619,96.952,318.619z"/>
	<path style="fill:#EDEBEB;" d="M75.165,269.599H5.992c-3.308,0-5.992-2.682-5.992-5.992s2.683-5.992,5.992-5.992h69.173
		c3.308,0,5.992,2.682,5.992,5.992S78.473,269.599,75.165,269.599z"/>
	<path style="fill:#EDEBEB;" d="M75.165,383.979h-6.701c-3.308,0-5.992-2.682-5.992-5.992s2.683-5.992,5.992-5.992h6.701
		c3.308,0,5.992,2.682,5.992,5.992S78.473,383.979,75.165,383.979z"/>
	<path style="fill:#EDEBEB;" d="M41.229,383.979H5.992c-3.308,0-5.992-2.682-5.992-5.992s2.683-5.992,5.992-5.992h35.237
		c3.308,0,5.992,2.682,5.992,5.992S44.538,383.979,41.229,383.979z"/>
</g>
<circle style="fill:#FFFFFF;" cx="138.298" cy="161.582" r="78.817"/>
<g>
	<path style="fill:#898686;" d="M138.298,248.564c-47.963,0-86.983-39.021-86.983-86.983s39.02-86.983,86.983-86.983
		s86.983,39.021,86.983,86.983S186.262,248.564,138.298,248.564z M138.298,90.939c-38.952,0-70.643,31.69-70.643,70.643
		s31.69,70.643,70.643,70.643s70.643-31.69,70.643-70.643S177.25,90.939,138.298,90.939z"/>
	<path style="fill:#898686;" d="M158.478,169.751h-20.18c-4.513,0-8.17-3.658-8.17-8.17v-45.487c0-4.512,3.657-8.17,8.17-8.17
		c4.513,0,8.17,3.658,8.17,8.17v37.317h12.008c4.513,0,8.17,3.658,8.17,8.17C166.647,166.093,162.99,169.751,158.478,169.751z"/>
</g>
</svg>